<svg xmlns="http://www.w3.org/2000/svg" viewBox="0 0 500 500"><path d="M218.5 98.6c.3 1.4.3 2.8-.1 4.2-.1-.5-.2-1-.3-1.6-.6 5.9 0 12.4-5.6 16.3-7.4 5.1-15.2 6.1-23.2 1.6-8.6-4.9-15.9-10.8-16.4-21.9-.2-4.4 1.9-7.1 5.2-9.3 5.8-3.9 12.2-6.4 19.2-6.6 7-.2 16.7.6 20.8 19.9.1-.9.2-1.8.4-2.6-.8-6-4.1-15.7-5.5-17.4-5.3-6.6-7.7-14.3-10-22.3-8.9-30.9-29.3-49.6-60.6-56-31-6.4-61.1-1.2-90.9 7.5-10.2 2.3-21.5 6.8-28.8 13.1C10.2 34.3-2.1 46.4.3 64.9c2.8 21.4 8.9 42.1 18.2 61.5 2.8 5.7 7.7 8.5 12.9 11 3.6 1.7 5.8 1.9 4.5-3.6-1.6-6.5 2.7-6.2 6.4-3.8 6 3.9 11.6 8.3 17.4 12.6v.1c8.7 11 15 23.7 18.8 37.2 1.8 6.6 4.1 13.5 10.6 17 17.3 9.4 28.4 14.5 40.5 17.4h.1c.4.1.8.2 1.3.3l4.9.7c15.1 1.9 32 1.3 45.2-2.2 11.2-2.9 16.1-17.8 11-29.2-2.3 2.1.9 6.8-3.3 7.8-5.8 1.4-4.1-6.4-8.5-7.4-3 2.5.2 9-5.6 9.5-5.4.5-4.4-6.4-8.2-7.9-6.8 12-7.8 12.1-15.2.8-4.1 1.6-2.3 8.4-7.6 8.7-5.9.3-3.9-7.1-7.8-9.3-2 2.8-3.4 6-6 7.1v.1h-.1c-.6-2.8.9-7.5-3.8-4.8-6.3 3.6-8.1 3.3-9.1-3.8-.6-4.1-4.6-5.7-7.7-7.6-6.7-4 7.2-3.9 1.7-9.5l.7-.5c1.8-.2 3.3-1.7 4.5-3.5-.3 1-.4 2.1-.4 3.1 3.9.4 5.8 4.2 7.1 8.4 7.9-7.2 7.9-7.2 14.1 1.1 6.9-9.3 7.2-9.3 14 .4 7.1-9.9 7.6-9.9 15.7-.9 3.4-11 4.2-11.1 13.9-.8.9-14.5 6.8-5.1 11.1-1.7 3.4-6.5 5.4-12.1 2.8-18.5-1.2-2.9-2.2-5.6 2.1-7.5 11.6-5.4 14.4-9 18.3-21.1 1-2.9 2.1-5.8 3.4-8.6 2.7-5.8 2.3-12.5.3-18.9zm-114.4 35.3c-4.4.7-8.8.1-12.9-1.7-15.3-6.3-18.3-25.3-5-34.9 13.8-9.9 29.6-15.5 46.5-17.7 3.9-.5 8.2.6 12 1.9 12.7 4.2 14.2 8.3 8.1 20.4-.6 1.2-1.4 2.4-1.9 3.6-8.1 21.6-24.1 30.5-46.8 28.4zm79.9 4.4c-.7 6.7-3 12.1-12.2 11.2-5.2-6.2-18.7 7.2-20.8-7.5-1.2-8.2 15.3-25.2 21.8-24.4 6.3.6 12.2 11.4 11.2 20.7z" fill="#BAFF29"/></svg>