<svg width="24" height="25" viewBox="0 0 24 25" fill="none" xmlns="http://www.w3.org/2000/svg">
<g clip-path="url(#clip0)">
<path d="M12 0.333374C5.3736 0.333374 0 5.70697 0 12.3334C0 18.9598 5.3736 24.3334 12 24.3334C18.6264 24.3334 24 18.9598 24 12.3334C24 5.70697 18.6264 0.333374 12 0.333374ZM17.4791 9.6897C17.4844 9.8078 17.4869 9.92645 17.4869 10.0457C17.4869 13.6852 14.7166 17.8822 9.65021 17.8824H9.65039H9.65021C8.09473 17.8824 6.64728 17.4265 5.42834 16.6451C5.64386 16.6706 5.86322 16.6832 6.08533 16.6832C7.37585 16.6832 8.56348 16.243 9.50629 15.5042C8.30054 15.4819 7.28394 14.6855 6.93311 13.5911C7.10101 13.6234 7.27368 13.6409 7.45074 13.6409C7.70215 13.6409 7.94568 13.6071 8.17712 13.5439C6.91681 13.2916 5.96741 12.1777 5.96741 10.844C5.96741 10.8315 5.96741 10.8204 5.96777 10.8088C6.33893 11.0152 6.76337 11.1393 7.21527 11.1533C6.47571 10.6598 5.98956 9.81622 5.98956 8.8606C5.98956 8.35596 6.12598 7.88318 6.36255 7.47614C7.72083 9.14276 9.75073 10.2388 12.0399 10.354C11.9927 10.1522 11.9683 9.94202 11.9683 9.72595C11.9683 8.20544 13.2019 6.97186 14.723 6.97186C15.5153 6.97186 16.2308 7.30676 16.7335 7.84216C17.361 7.71838 17.9502 7.48914 18.4825 7.17365C18.2765 7.81653 17.84 8.35596 17.2712 8.69708C17.8284 8.63043 18.3594 8.48267 18.8529 8.26331C18.4843 8.81573 18.0168 9.30096 17.4791 9.6897Z" fill="#BAFF29"/>
</g>
<defs>
<clipPath id="clip0">
<rect width="24" height="24" fill="white" transform="translate(0 0.333374)"/>
</clipPath>
</defs>
</svg>
