<svg width="24" height="25" viewBox="0 0 24 25" fill="none" xmlns="http://www.w3.org/2000/svg">
<path d="M12.1658 13.1609L9.32825 21.4066C10.1759 21.6551 11.072 21.7922 12.0005 21.7922C13.1016 21.7922 14.1583 21.6016 15.1408 21.2559C15.1155 21.2153 15.0925 21.1723 15.0737 21.1255L12.1658 13.1609Z" fill="#BAFF29"/>
<path d="M2.54187 12.3332C2.54187 16.0773 4.7177 19.3126 7.87281 20.8455L3.36127 8.48413C2.83662 9.6604 2.54187 10.9621 2.54187 12.3332Z" fill="#BAFF29"/>
<path d="M18.3847 11.856C18.3847 10.6872 17.9652 9.8779 17.6054 9.24733C17.1258 8.46826 16.6764 7.80873 16.6764 7.02942C16.6764 6.16003 17.3357 5.35077 18.2647 5.35077C18.3068 5.35077 18.3464 5.35597 18.3874 5.35795C16.7051 3.8169 14.4634 2.87549 12.0008 2.87549C8.69593 2.87549 5.78879 4.57072 4.09827 7.13881C4.32001 7.14549 4.52863 7.15019 4.70682 7.15019C5.69624 7.15019 7.22788 7.03016 7.22788 7.03016C7.73818 6.99948 7.79758 7.74859 7.28852 7.80873C7.28852 7.80873 6.77599 7.86887 6.20604 7.89906L9.64971 18.1439L11.7194 11.9359L10.2454 7.89881C9.73608 7.86862 9.25375 7.80848 9.25375 7.80848C8.74443 7.77879 8.80383 6.99972 9.31339 7.02991C9.31339 7.02991 10.8757 7.14994 11.8045 7.14994C12.7937 7.14994 14.3258 7.02991 14.3258 7.02991C14.8361 6.99972 14.8958 7.74835 14.386 7.80848C14.386 7.80848 13.8729 7.86862 13.3035 7.89881L16.7219 18.066L17.6653 14.9136C18.0739 13.6054 18.3847 12.6655 18.3847 11.856Z" fill="#BAFF29"/>
<path d="M20.2992 7.79553C20.3397 8.09647 20.363 8.42042 20.363 8.76812C20.363 9.72785 20.1841 10.8069 19.6441 12.1559L16.7548 20.5085C19.5664 18.8687 21.4583 15.8223 21.4583 12.3336C21.4586 10.6888 21.0381 9.14256 20.2992 7.79553Z" fill="#BAFF29"/>
<path d="M12 0.333374C5.37252 0.333374 0 5.70614 0 12.3336C0 18.9611 5.37252 24.3339 12 24.3339C18.6275 24.3339 24 18.9611 24 12.3336C24 5.70614 18.6275 0.333374 12 0.333374ZM12.0005 22.8532C6.19959 22.8532 1.48091 18.1345 1.48091 12.3331C1.48091 6.53272 6.19934 1.81404 12.0005 1.81404C17.8007 1.81404 22.5191 6.53297 22.5191 12.3331C22.5193 18.134 17.8004 22.8532 12.0005 22.8532Z" fill="#BAFF29"/>
</svg>
