<svg id="Layer_1" data-name="Layer 1" xmlns="http://www.w3.org/2000/svg" viewBox="0 0 500 500"><defs><style>.cls-1{fill:#231f20}</style></defs><path class="cls-1" d="M378.68 502.36c.06-5.68.94-14-5.34-17.56-11.74-6.61-25.59 2.63-32.52 11.21-8.42 10.41-12.16 23-19.63 33.9a31.5 31.5 0 01-2.7 3.36 5.68 5.68 0 00-4.36-.85c-2.47.63-3.8 3.2-3.82 5.54a8.22 8.22 0 00.21 1.91c-1.17.74-2.39 1.43-3.64 2.07a6.19 6.19 0 00-6.11-2.69 6.42 6.42 0 00-1.95.8 7.45 7.45 0 00-3.62 6.65c-1.94.63-3.9 1.23-5.86 1.78a13.65 13.65 0 00-2.67-6c-1.64-1.86-4.64-3-6.95-1.83a15.43 15.43 0 00-2.63 11.13c-2.2.6-4.55 1.29-7 2a9.68 9.68 0 00-4.13-5.28c-2.79-1.63-6.94-1.43-9 .94-1.84 2.11-1.59 5.12-.88 7.76a60.28 60.28 0 01-6.44.81c-.5-2.93-1-5.87-1.51-8.81-3.9.82-8.18-3.46-8.56 7a5.24 5.24 0 01-.32 1.07 21.17 21.17 0 01-6.4-2.66 50.34 50.34 0 00-1.9-9c-.92-3-3.1-6.48-6.47-6.12a4.23 4.23 0 00-3.39 2.56 38.32 38.32 0 00-5.74-5.1c-.66-2.9-2-5.55-4.7-7a8.12 8.12 0 00-9.53 1.88 6 6 0 00-1.14 2.29h-.05l-.26.11a1.8 1.8 0 00-2.36 1.47c-2.36 15.67 3.46 31.38 10.5 45.45 3.76 7.51 8.16 14.76 12.52 22 3.46 5.75 7.5 11.43 14.26 14.21 14.47 5.93 26.63-8.59 36.67-15.53 13-9 28.19-14.85 42.1-22.45a113.57 113.57 0 0017.81-12c6.2-5.11 11-11.45 17.17-16.63s14.4-5.43 21.51-9.06c6-3.07 7.74-9.69 8.41-15.42.91-7.75.33-15.97.42-23.91z" transform="translate(-148.83 -225.08)"/><path class="cls-1" d="M367 235.06c-4.65-1.51-9.2-2.81-13.5-3.94-47.92-12.52-102.39-6-141.09 24-13.38 10.39-24.39 23.08-35.3 35.56-26.53 30.36-21.29 81.1-25.55 117.65-1.7 14.55-5.07 30.12-.29 44.46 4.14 12.43 15.76 17.4 28.32 21 6.13 1.74 12.47 3.38 17 7.82 6.15 6.08 2.17 17.44 2.92 24.86a19.23 19.23 0 006 12.13 12.49 12.49 0 00.3 3.33c.79 3.3 3.7 6.43 7.39 6.54a6.65 6.65 0 005.3-2.41c1.06.36 2.14.69 3.22 1v.12c-.22 2.86 1.26 6 4.2 7 3.09 1 6.62-.74 8.39-3.27a1.6 1.6 0 000-1.6c2.32.26 4.67.44 7 .56-.06.22-.12.44-.16.66a6.87 6.87 0 002.19 6.84c2.45 1.91 6.38 1.59 8.91-.22a10.38 10.38 0 004-7.18c1.55 0 3.11-.11 4.66-.18.06 3 1.87 6.12 5 6.9 3.43.86 7.05-1.46 8.56-4.4a11.9 11.9 0 001.13-3.46l2.16-.16 4.85-.36c-.13 2.4-.27 4.8-.4 7.2a6.35 6.35 0 005.73-.33 12 12 0 004-4c1-1.49.48-2.64-.62-3.73a76.32 76.32 0 0013.14-2.67 6.82 6.82 0 004.37 5c4.31 1.36 8.83-2.63 9.29-6.78.17-1.55-1.15-2.54-3-3.35a24.11 24.11 0 004.39-4c9.48-11.37 6.46-28.77 24.05-33.54 20.09-5.45 40.28-7 53.41-23.62 12.57-15.91 29.29-28.93 38.52-47 3.35-6.54 2.77-12.24 4-19.12 1.82-9.79 6.42-18.86 7.65-28.84a105.8 105.8 0 00-7.32-53.75c-13.96-33.63-33.56-62.05-72.82-74.72zM205.12 452.75c-13.12 6.25-31.32 2.85-39.63-8.37-5.82-7.86-6.47-17.88-6.88-27.36-.44-10.14-.23-21.67 8-28.51s21.63-5.89 31.7-1.3c13.28 6.05 23.56 17.92 25.45 31.36a33.46 33.46 0 01-18.64 34.18zm47.73 49.06c-4.51.25-7.85-3.56-10.67-6.79s-7.16-6.56-11.36-5c-2 .72-3.33 2.38-4.93 3.67s-4 2.25-5.82 1.29c-2.88-6.19-.27-13.25 2.33-19.54l9.75-23.54c1.22-2 4.56-2.18 6.68-.92s3.3 3.46 4.39 5.54l13.56 26.05c1.83 3.51 3.7 7.2 3.51 11.08s-3.19 7.92-7.44 8.16zm94.91-75.12c-2.17 16.48-16.88 30.92-34.71 34.13s-37.41-5-46.39-19.46c-5.42-8.73-7.07-19.11-6.16-29.11.71-7.82 3.16-15.9 9.23-21.45 6.54-6 16.22-8.08 25.45-8.6 9.39-.53 19.05.36 27.62 3.92 16.55 6.88 27.13 24.09 24.96 40.57z" transform="translate(-148.83 -225.08)"/></svg>